<?xml version="1.0" standalone="no"?>
<!DOCTYPE svg PUBLIC "-//W3C//DTD SVG 20010904//EN"
 "http://www.w3.org/TR/2001/REC-SVG-20010904/DTD/svg10.dtd">
<svg version="1.0" xmlns="http://www.w3.org/2000/svg"
 width="1065.000000pt" height="1080.000000pt" viewBox="0 0 1065.000000 1080.000000"
 preserveAspectRatio="xMidYMid meet">

<g transform="translate(0.000000,1080.000000) scale(0.100000,-0.100000)"
fill="#000000" stroke="none">
<path d="M5323 8660 c-505 -33 -1110 -143 -1453 -264 -58 -20 -120 -20 -435 4
-405 31 -597 25 -877 -25 -358 -65 -593 -212 -766 -478 -42 -65 -60 -101 -108
-212 -29 -68 -65 -216 -76 -308 -9 -74 -9 -125 1 -215 10 -102 17 -127 52
-199 22 -46 53 -98 69 -117 36 -41 36 -46 6 -138 -28 -83 -56 -266 -56 -365 0
-213 78 -465 204 -658 240 -368 690 -676 1268 -869 319 -106 584 -162 1013
-213 209 -24 886 -24 1120 0 331 35 605 82 895 152 504 123 1048 345 1413 577
l49 31 71 -36 c84 -43 150 -57 267 -57 145 0 235 36 331 133 91 91 129 215 98
325 -14 53 -29 80 -76 136 -18 22 -33 44 -33 49 0 5 17 30 38 56 157 189 285
439 333 650 29 125 36 359 15 476 -17 93 -38 168 -61 220 -7 17 -21 50 -31 75
-21 54 -100 184 -157 260 -97 128 -207 235 -357 348 -63 47 -118 90 -121 95
-4 5 -6 43 -7 85 -1 288 -255 407 -541 252 -30 -17 -64 -30 -75 -30 -11 0 -56
13 -100 29 -254 92 -634 172 -1006 211 -210 23 -707 34 -907 20z m322 -224
c95 -47 186 -133 203 -192 38 -132 -14 -261 -128 -319 -161 -82 -258 -99 -550
-99 -256 0 -466 17 -724 59 -148 25 -463 71 -681 100 -450 59 -914 42 -1150
-42 -128 -47 -256 -155 -314 -267 -71 -134 -17 -302 119 -371 77 -39 140 -46
258 -27 68 11 105 13 112 6 12 -12 -11 -79 -47 -136 -13 -21 -23 -42 -23 -48
0 -21 -166 -177 -222 -209 -168 -95 -359 -106 -510 -30 -156 79 -219 224 -204
464 11 179 66 342 166 490 185 274 437 388 940 425 156 12 130 13 955 -39 926
-59 886 -59 1193 -1 251 47 308 83 322 205 7 66 28 77 132 72 65 -3 90 -10
153 -41z m2090 -137 c51 -45 61 -92 40 -188 -32 -140 -120 -341 -222 -506
-280 -453 -268 -423 -268 -635 1 -174 4 -194 40 -232 42 -46 84 -39 145 23 30
30 57 49 67 47 10 -2 28 -18 40 -37 19 -28 23 -47 23 -116 0 -108 -20 -165
-73 -211 -69 -58 -128 -94 -187 -111 -47 -14 -64 -14 -114 -4 -33 7 -77 21
-97 31 -35 18 -105 94 -142 153 -10 15 -21 27 -25 27 -4 0 -25 -17 -47 -38
-68 -65 -163 -130 -217 -148 -78 -26 -198 -15 -280 24 -35 17 -75 42 -89 55
-41 37 -97 124 -116 179 -10 27 -25 54 -33 58 -13 7 -177 -15 -257 -35 -12 -3
-41 -28 -65 -56 -104 -124 -183 -196 -253 -230 -67 -32 -75 -34 -180 -34 -104
0 -114 2 -175 32 -66 33 -112 69 -142 112 -17 23 -16 25 27 80 68 86 125 226
125 307 1 179 -183 293 -389 240 -92 -24 -114 -36 -135 -81 -20 -44 -48 -72
-86 -87 -74 -30 -216 -78 -232 -78 -40 0 -13 17 80 49 135 46 170 71 122 86
-19 6 -59 -5 -158 -44 -29 -12 -63 -21 -75 -21 -21 1 -21 1 -3 15 10 8 63 28
117 45 67 21 102 37 109 50 19 36 -17 35 -134 -4 -118 -39 -126 -41 -126 -28
0 9 74 40 156 66 61 20 90 39 80 54 -11 19 -40 14 -148 -23 -113 -40 -158 -33
-51 7 205 77 220 79 299 47 l52 -22 119 40 c189 64 223 73 301 80 82 7 83 20
3 30 -28 3 -53 9 -56 13 -9 15 82 147 149 214 106 107 149 136 249 170 217 73
399 18 480 -147 58 -119 72 -289 42 -516 -8 -62 -12 -117 -9 -122 9 -15 64
-10 95 8 37 22 51 53 84 186 34 141 105 304 164 381 21 27 160 166 187 187 45
35 153 79 221 91 60 10 81 9 154 -7 46 -10 101 -19 122 -19 43 -1 45 1 117
155 71 153 160 285 234 348 15 14 34 30 40 37 15 14 112 64 146 75 14 4 46 8
72 8 39 1 53 -4 83 -30z m-4320 -500 c48 -13 91 -51 112 -99 26 -61 1 -387
-52 -688 -10 -51 -14 -100 -11 -108 11 -28 142 -13 262 28 55 20 109 40 120
46 11 6 31 43 48 89 55 149 156 312 258 415 84 84 260 146 378 133 71 -8 146
-43 188 -86 l33 -34 -84 -7 c-144 -11 -274 -54 -342 -114 -16 -14 -41 -36 -55
-48 -41 -34 -107 -127 -135 -189 -32 -70 -44 -185 -25 -243 19 -58 75 -106
150 -128 52 -15 84 -17 170 -13 142 7 222 40 271 111 13 19 48 49 78 67 49 30
62 34 132 34 72 0 80 -2 107 -28 76 -72 31 -166 -103 -216 -73 -27 -117 -26
-181 4 l-52 25 -144 -54 c-194 -73 -317 -102 -406 -97 -24 1 -33 -2 -30 -11 3
-9 29 -14 76 -16 40 -2 72 -5 72 -8 0 -2 -6 -14 -12 -25 -12 -19 -8 -25 38
-68 57 -53 189 -125 247 -135 20 -4 37 -10 37 -14 -1 -10 -67 -55 -111 -75
-20 -9 -71 -22 -113 -29 -136 -21 -247 14 -338 106 -80 81 -114 165 -149 364
-7 40 -18 77 -25 83 -12 10 -109 -15 -322 -83 -64 -20 -109 -56 -117 -93 -2
-11 -21 -94 -41 -185 -74 -334 -114 -609 -114 -792 0 -109 -16 -149 -68 -174
-89 -43 -217 -8 -274 74 -60 87 -60 183 -2 830 13 152 15 205 6 214 -14 14
-222 -33 -292 -66 -112 -52 -137 -75 -174 -161 -19 -44 -41 -84 -49 -89 -21
-13 -89 19 -114 53 -28 37 -43 87 -43 138 0 118 59 190 215 264 114 53 170 69
410 119 55 12 104 25 108 29 8 8 49 197 67 311 5 30 16 96 25 145 10 52 19
160 21 254 2 90 7 168 11 172 4 4 31 19 60 34 79 41 199 55 278 34z m2890
-1669 c240 -12 716 -60 1060 -106 61 -8 144 -19 185 -24 176 -20 406 -81 585
-156 43 -18 111 -78 131 -115 21 -42 18 -127 -7 -169 -74 -123 -217 -181 -371
-150 -74 14 -143 47 -178 85 -63 68 -182 130 -305 159 -38 8 -119 27 -180 41
-183 43 -583 122 -705 140 -268 38 -741 79 -1094 95 -411 19 -1004 -28 -1321
-104 -109 -27 -355 -101 -450 -136 -78 -29 -124 -40 -140 -34 -7 3 -19 19 -25
35 -21 50 20 90 137 132 94 35 211 75 248 86 225 64 319 87 500 121 229 43
460 73 685 90 80 5 163 12 185 13 102 9 874 6 1060 -3z m-192 -353 c7 -22 6
-33 -6 -45 -16 -16 -267 -72 -323 -72 -51 0 -58 -17 -51 -135 3 -58 8 -109 11
-114 4 -5 28 -3 57 4 29 8 75 17 104 20 47 6 54 5 64 -13 22 -41 13 -62 -31
-82 -24 -11 -50 -20 -59 -20 -8 0 -39 -7 -67 -15 l-52 -16 0 -61 0 -61 88 7
c48 3 117 9 154 12 75 7 98 -4 98 -49 0 -37 -19 -47 -132 -67 -57 -10 -125
-24 -153 -30 -62 -14 -153 -14 -170 0 -18 15 -24 68 -35 348 -12 269 -9 289
44 303 16 5 38 17 50 27 33 30 60 42 159 68 65 16 114 23 166 21 72 -2 75 -3
84 -30z m-1464 -52 c21 -18 37 -48 55 -104 40 -122 48 -183 53 -388 4 -184 4
-192 -16 -212 -24 -24 -89 -29 -109 -9 -8 8 -12 54 -12 140 l0 128 -36 0 c-20
0 -77 -9 -126 -21 -103 -24 -99 -18 -123 -161 -21 -122 -32 -156 -56 -163 -41
-13 -57 3 -65 62 -24 194 87 529 223 674 78 82 155 101 212 54z m862 -26 c14
-26 12 -33 -46 -198 -26 -74 -56 -166 -67 -205 -40 -146 -71 -242 -85 -257
-22 -26 -101 -43 -121 -27 -30 23 -42 36 -42 46 0 5 -10 20 -22 33 -13 14 -34
47 -48 74 -14 27 -32 56 -42 65 -23 22 -130 205 -156 269 -45 109 -39 161 17
161 37 0 53 -15 88 -80 67 -123 192 -319 219 -341 21 -17 27 -7 57 96 31 107
91 285 108 317 24 48 51 68 90 68 29 0 41 -5 50 -21z m1297 -12 c11 -22 11
-61 3 -205 -6 -97 -13 -208 -15 -246 -3 -61 -7 -73 -30 -93 -75 -64 -171 -6
-361 220 -31 37 -61 65 -66 62 -5 -4 -9 -80 -9 -169 0 -183 -2 -189 -67 -184
l-38 3 -6 70 c-11 123 -10 440 2 474 11 32 35 51 65 51 19 0 143 -124 247
-246 100 -117 126 -127 127 -49 1 89 21 278 31 298 30 55 94 63 117 14z
m-2707 -102 c15 -26 19 -73 25 -347 8 -348 8 -348 -50 -348 -65 0 -71 12 -74
172 -2 78 -8 148 -14 155 -12 14 -265 6 -285 -9 -7 -6 -14 -70 -18 -178 l-8
-169 -33 -11 c-39 -13 -69 -1 -79 30 -4 11 -7 127 -7 258 -1 304 17 415 68
428 41 11 51 -9 58 -118 4 -56 10 -106 13 -111 3 -5 22 -6 42 -3 20 4 80 11
135 16 54 5 101 12 104 14 2 3 10 49 16 103 7 54 18 108 24 120 23 42 58 41
83 -2z"/>
<path d="M6886 7535 c-165 -59 -281 -241 -332 -524 -16 -90 -16 -99 1 -170 14
-59 25 -83 50 -108 29 -29 39 -33 87 -33 62 0 119 31 176 94 52 57 55 73 117
474 34 217 35 235 20 258 -18 28 -58 31 -119 9z"/>
<path d="M5711 7523 c-44 -8 -127 -69 -175 -128 -52 -65 -114 -185 -148 -290
-19 -57 -23 -92 -23 -190 0 -108 2 -125 25 -169 36 -71 67 -91 145 -91 54 0
69 4 107 31 47 33 49 43 21 124 -10 28 -16 80 -16 135 0 139 40 235 170 407
40 53 42 59 31 85 -12 28 -65 83 -79 83 -4 0 -13 2 -21 4 -7 2 -24 1 -37 -1z"/>
<path d="M4758 6893 c-32 -37 -40 -62 -29 -96 11 -33 55 -67 85 -67 22 0 20
10 -10 41 -28 29 -32 54 -20 107 8 36 -2 42 -26 15z"/>
<path d="M4517 5578 c-37 -46 -97 -158 -97 -182 0 -24 12 -25 95 -8 l80 17 3
45 c4 47 -13 123 -34 153 -11 17 -15 15 -47 -25z"/>
<path d="M2396 3730 c-52 -16 -96 -77 -96 -135 0 -36 27 -91 56 -114 36 -29
131 -30 165 -2 18 15 21 22 13 31 -9 9 -17 9 -32 1 -27 -15 -93 -13 -113 2
-87 67 -18 206 86 175 45 -14 57 -14 62 -1 6 17 -56 53 -87 52 -14 0 -38 -5
-54 -9z"/>
<path d="M4975 3726 c-16 -7 -41 -26 -55 -41 -21 -23 -25 -36 -25 -92 0 -62 2
-66 37 -99 37 -34 57 -39 128 -35 60 4 80 24 80 82 0 35 -4 51 -15 56 -22 8
-28 -1 -34 -50 -6 -42 -6 -42 -52 -45 -60 -4 -99 31 -99 90 0 78 66 123 137
93 20 -8 39 -12 44 -9 20 12 7 36 -26 50 -42 17 -81 17 -120 0z"/>
<path d="M5578 3724 c-49 -26 -63 -79 -29 -113 10 -10 44 -26 74 -35 30 -9 57
-23 61 -31 15 -39 -27 -61 -85 -45 -48 14 -69 12 -69 -5 0 -23 34 -35 100 -35
51 0 65 4 85 25 52 51 26 100 -67 130 -50 16 -64 25 -66 42 -5 32 40 49 87 34
38 -11 51 -7 51 15 0 32 -94 45 -142 18z"/>
<path d="M7392 3730 c-54 -22 -92 -80 -92 -142 0 -35 31 -91 63 -113 42 -30
177 -13 177 22 0 19 -29 28 -43 14 -19 -19 -91 -13 -115 9 -37 34 -42 112 -10
144 27 26 78 36 111 22 61 -25 81 9 22 37 -39 19 -77 21 -113 7z"/>
<path d="M8135 3727 c-43 -20 -61 -58 -46 -96 7 -16 25 -34 39 -39 15 -5 45
-16 67 -24 32 -11 40 -19 40 -38 0 -30 -39 -42 -95 -28 -31 8 -44 8 -53 -1
-25 -26 68 -55 130 -41 48 11 73 37 73 75 0 41 -21 59 -92 80 -55 16 -72 32
-62 59 7 19 55 27 93 16 21 -6 33 -5 41 5 26 32 -79 57 -135 32z"/>
<path d="M2776 3678 c-13 -29 -40 -88 -60 -131 -29 -64 -33 -79 -21 -84 18 -6
42 12 50 38 5 16 16 19 75 19 67 0 70 -1 85 -30 15 -28 55 -43 55 -20 0 10
-72 178 -98 228 -27 51 -58 44 -86 -20z m69 -48 c8 -16 15 -39 15 -50 0 -18
-5 -21 -37 -18 -24 2 -39 9 -41 18 -2 14 32 80 43 80 2 0 11 -13 20 -30z"/>
<path d="M3074 3719 c-10 -16 7 -27 46 -31 l35 -3 5 -110 c5 -102 7 -110 25
-110 18 0 20 8 25 110 l5 110 38 6 c42 7 52 13 42 28 -9 15 -212 15 -221 0z"/>
<path d="M3464 3717 c-2 -7 -3 -67 -2 -133 l3 -119 95 0 c78 0 95 3 95 15 0
11 -17 16 -70 20 l-70 5 0 35 0 35 63 3 c53 3 63 6 60 20 -3 13 -16 18 -66 20
l-63 3 3 32 c3 32 4 32 63 35 59 3 90 16 79 33 -9 15 -184 11 -190 -4z"/>
<path d="M3840 3596 c0 -127 1 -136 19 -136 20 0 31 18 31 51 0 46 69 35 100
-16 13 -20 30 -35 41 -35 23 0 25 19 4 46 -20 26 -19 41 5 71 29 37 27 93 -6
124 -22 21 -37 24 -110 28 l-84 3 0 -136z m137 88 c23 -6 39 -37 34 -64 -4
-25 -33 -40 -78 -40 l-43 0 0 55 0 55 33 0 c17 0 42 -3 54 -6z"/>
<path d="M4240 3595 c0 -128 1 -135 20 -135 19 0 20 7 20 135 0 128 -1 135
-20 135 -19 0 -20 -7 -20 -135z"/>
<path d="M4477 3723 c-10 -10 -8 -236 2 -252 5 -8 16 -11 25 -8 13 5 16 21 16
76 0 38 4 72 9 76 5 3 31 -20 58 -51 76 -89 91 -104 108 -104 17 0 16 -1 18
160 1 100 0 105 -21 108 -20 3 -21 -1 -24 -74 -2 -43 -7 -79 -13 -80 -5 -2
-39 32 -75 76 -59 73 -85 91 -103 73z"/>
<path d="M5912 3598 l3 -133 95 0 c78 0 95 3 95 15 0 12 -15 16 -67 18 -55 2
-70 7 -78 22 -8 14 -7 26 0 40 9 16 21 20 64 20 57 0 67 4 59 26 -4 10 -23 14
-63 14 -61 0 -77 12 -65 51 5 15 19 19 73 21 54 2 67 6 70 21 3 15 -7 17 -93
17 l-96 0 3 -132z"/>
<path d="M6290 3594 c0 -123 2 -135 17 -132 11 2 20 15 23 32 10 60 73 60 110
1 13 -20 30 -35 41 -35 24 0 24 11 0 51 l-20 32 25 29 c25 31 31 76 14 109
-18 33 -64 49 -140 49 l-70 0 0 -136z m152 79 c45 -41 7 -96 -63 -91 -43 3
-44 4 -47 42 -2 21 -1 44 2 52 8 20 85 18 108 -3z"/>
<path d="M6660 3721 c0 -24 104 -253 118 -258 28 -11 45 13 98 136 41 94 50
123 39 127 -21 9 -35 -4 -56 -52 -10 -24 -28 -65 -39 -90 -25 -58 -36 -51 -75
48 -16 40 -33 79 -38 86 -11 14 -47 16 -47 3z"/>
<path d="M7085 3718 c-3 -8 -4 -68 -3 -134 3 -111 4 -119 23 -119 19 0 20 7
20 130 0 116 -2 130 -18 133 -9 2 -19 -3 -22 -10z"/>
<path d="M7724 3717 c-2 -7 -3 -67 -2 -133 l3 -119 98 -3 c91 -3 97 -2 97 17
0 18 -8 20 -72 23 -72 3 -73 3 -76 32 -5 37 10 46 76 46 45 0 53 3 50 18 -2
13 -16 18 -63 22 -59 5 -60 6 -60 35 l0 30 70 5 c53 4 70 9 70 20 0 21 -183
28 -191 7z"/>
<path d="M0 70 l0 -70 5325 0 5325 0 0 70 0 70 -5325 0 -5325 0 0 -70z"/>
</g>
</svg>
